P1
85 127
1111111111111111111111111111111111111111111111111111111111111111111111111111111111111
1000000000000000000001000000000000000000001000000000000000000001000000000000000000001
1011111111111111111101000000000000000000001000000000000000000001000000000000000000001
1011111111111111111101000000000000000000001000000000000000000001000000000000000000001
1011111111111111111101000000000000000000001000000000000000000001000000000000000000001
1011111111111111111101000000000000000000001000000000000000000001000000000000000000001
1011111111111111111101000000000000000000001000000000000000000001000000000000000000001
1011111111111111111101000000000000000000001000000000000000000001000000000000000000001
1011111111111111111101000000000000000000001000000000000000000001000000000000000000001
1011111111111111111101000000000000000000001000000000000000000001000000000000000000001
1011111111111111111101000000000000000000001000000000000000000001000000000000000000001
1011111111111111111101000000000000000000001000000000000000000001000000000000000000001
1011111111111111111101000000000000000000001000000000000000000001000000000000000000001
1011111111111111111101000000000000000000001000000000000000000001000000000000000000001
1011111111111111111101000000000000000000001000000000000000000001000000000000000000001
1011111111111111111101000000000000000000001000000000000000000001000000000000000000001
1011111111111111111101000000000000000000001000000000000000000001000000000000000000001
1011111111111111111101000000000000000000001000000000000000000001000000000000000000001
1011111111111111111101000000000000000000001000000000000000000001000000000000000000001
1011111111111111111101000000000000000000001000000000000000000001000000000000000000001
1000000000000000000001000000000000000000001000000000000000000001000000000000000000001
1111111111111111111111111111111111111111111111111111111111111111111111111111111111111
1000000000000000000001000000000000000000001000000000000000000001000000000000000000001
1000000000000000000001011111111111111111101000000000000000000001000000000000000000001
1000000000000000000001011111111111111111101000000000000000000001000000000000000000001
1000000000000000000001011111111111111111101000000000000000000001000000000000000000001
1000000000000000000001011111111111111111101000000000000000000001000000000000000000001
1000000000000000000001011111111111111111101000000000000000000001000000000000000000001
1000000000000000000001011111111111111111101000000000000000000001000000000000000000001
1000000000000000000001011111111111111111101000000000000000000001000000000000000000001
1000000000000000000001011111111111111111101000000000000000000001000000000000000000001
1000000000000000000001011111111111111111101000000000000000000001000000000000000000001
1000000000000000000001011111111111111111101000000000000000000001000000000000000000001
1000000000000000000001011111111111111111101000000000000000000001000000000000000000001
1000000000000000000001011111111111111111101000000000000000000001000000000000000000001
1000000000000000000001011111111111111111101000000000000000000001000000000000000000001
1000000000000000000001011111111111111111101000000000000000000001000000000000000000001
1000000000000000000001011111111111111111101000000000000000000001000000000000000000001
1000000000000000000001011111111111111111101000000000000000000001000000000000000000001
1000000000000000000001011111111111111111101000000000000000000001000000000000000000001
1000000000000000000001011111111111111111101000000000000000000001000000000000000000001
1000000000000000000001000000000000000000001000000000000000000001000000000000000000001
1111111111111111111111111111111111111111111111111111111111111111111111111111111111111
1000000000000000000001000000000000000000001000000000000000000001000000000000000000001
1000000000000000000001000000000000000000001011111111111111111101000000000000000000001
1000000000000000000001000000000000000000001011111111111111111101000000000000000000001
1000000000000000000001000000000000000000001011111111111111111101000000000000000000001
1000000000000000000001000000000000000000001011111111111111111101000000000000000000001
1000000000000000000001000000000000000000001011111111111111111101000000000000000000001
1000000000000000000001000000000000000000001011111111111111111101000000000000000000001
1000000000000000000001000000000000000000001011111111111111111101000000000000000000001
1000000000000000000001000000000000000000001011111111111111111101000000000000000000001
1000000000000000000001000000000000000000001011111111111111111101000000000000000000001
1000000000000000000001000000000000000000001011111111111111111101000000000000000000001
1000000000000000000001000000000000000000001011111111111111111101000000000000000000001
1000000000000000000001000000000000000000001011111111111111111101000000000000000000001
1000000000000000000001000000000000000000001011111111111111111101000000000000000000001
1000000000000000000001000000000000000000001011111111111111111101000000000000000000001
1000000000000000000001000000000000000000001011111111111111111101000000000000000000001
1000000000000000000001000000000000000000001011111111111111111101000000000000000000001
1000000000000000000001000000000000000000001011111111111111111101000000000000000000001
1000000000000000000001000000000000000000001011111111111111111101000000000000000000001
1000000000000000000001000000000000000000001000000000000000000001000000000000000000001
1111111111111111111111111111111111111111111111111111111111111111111111111111111111111
1000000000000000000001000000000000000000001000000000000000000001000000000000000000001
1011111111111111111101000000000000000000001000000000000000000001000000000000000000001
1011111111111111111101000000000000000000001000000000000000000001000000000000000000001
1011111111111111111101000000000000000000001000000000000000000001000000000000000000001
1011111111111111111101000000000000000000001000000000000000000001000000000000000000001
1011111111111111111101000000000000000000001000000000000000000001000000000000000000001
1011111111111111111101000000000000000000001000000000000000000001000000000000000000001
1011111111111111111101000000000000000000001000000000000000000001000000000000000000001
1011111111111111111101000000000000000000001000000000000000000001000000000000000000001
1011111111111111111101000000000000000000001000000000000000000001000000000000000000001
1011111111111111111101000000000000000000001000000000000000000001000000000000000000001
1011111111111111111101000000000000000000001000000000000000000001000000000000000000001
1011111111111111111101000000000000000000001000000000000000000001000000000000000000001
1011111111111111111101000000000000000000001000000000000000000001000000000000000000001
1011111111111111111101000000000000000000001000000000000000000001000000000000000000001
1011111111111111111101000000000000000000001000000000000000000001000000000000000000001
1011111111111111111101000000000000000000001000000000000000000001000000000000000000001
1011111111111111111101000000000000000000001000000000000000000001000000000000000000001
1011111111111111111101000000000000000000001000000000000000000001000000000000000000001
1000000000000000000001000000000000000000001000000000000000000001000000000000000000001
1111111111111111111111111111111111111111111111111111111111111111111111111111111111111
1000000000000000000001000000000000000000001000000000000000000001000000000000000000001
1000000000000000000001000000000000000000001011111111111111111101000000000000000000001
1000000000000000000001000000000000000000001011111111111111111101000000000000000000001
1000000000000000000001000000000000000000001011111111111111111101000000000000000000001
1000000000000000000001000000000000000000001011111111111111111101000000000000000000001
1000000000000000000001000000000000000000001011111111111111111101000000000000000000001
1000000000000000000001000000000000000000001011111111111111111101000000000000000000001
1000000000000000000001000000000000000000001011111111111111111101000000000000000000001
1000000000000000000001000000000000000000001011111111111111111101000000000000000000001
1000000000000000000001000000000000000000001011111111111111111101000000000000000000001
1000000000000000000001000000000000000000001011111111111111111101000000000000000000001
1000000000000000000001000000000000000000001011111111111111111101000000000000000000001
1000000000000000000001000000000000000000001011111111111111111101000000000000000000001
1000000000000000000001000000000000000000001011111111111111111101000000000000000000001
1000000000000000000001000000000000000000001011111111111111111101000000000000000000001
1000000000000000000001000000000000000000001011111111111111111101000000000000000000001
1000000000000000000001000000000000000000001011111111111111111101000000000000000000001
1000000000000000000001000000000000000000001011111111111111111101000000000000000000001
1000000000000000000001000000000000000000001011111111111111111101000000000000000000001
1000000000000000000001000000000000000000001000000000000000000001000000000000000000001
1111111111111111111111111111111111111111111111111111111111111111111111111111111111111
1000000000000000000001000000000000000000001000000000000000000001000000000000000000001
1000000000000000000001000000000000000000001000000000000000000001011111111111111111101
1000000000000000000001000000000000000000001000000000000000000001011111111111111111101
1000000000000000000001000000000000000000001000000000000000000001011111111111111111101
1000000000000000000001000000000000000000001000000000000000000001011111111111111111101
1000000000000000000001000000000000000000001000000000000000000001011111111111111111101
1000000000000000000001000000000000000000001000000000000000000001011111111111111111101
1000000000000000000001000000000000000000001000000000000000000001011111111111111111101
1000000000000000000001000000000000000000001000000000000000000001011111111111111111101
1000000000000000000001000000000000000000001000000000000000000001011111111111111111101
1000000000000000000001000000000000000000001000000000000000000001011111111111111111101
1000000000000000000001000000000000000000001000000000000000000001011111111111111111101
1000000000000000000001000000000000000000001000000000000000000001011111111111111111101
1000000000000000000001000000000000000000001000000000000000000001011111111111111111101
1000000000000000000001000000000000000000001000000000000000000001011111111111111111101
1000000000000000000001000000000000000000001000000000000000000001011111111111111111101
1000000000000000000001000000000000000000001000000000000000000001011111111111111111101
1000000000000000000001000000000000000000001000000000000000000001011111111111111111101
1000000000000000000001000000000000000000001000000000000000000001011111111111111111101
1000000000000000000001000000000000000000001000000000000000000001000000000000000000001
1111111111111111111111111111111111111111111111111111111111111111111111111111111111111
